<svg width="81.104" height="87.162" viewBox="0 0 81.104 87.162" xmlns="http://www.w3.org/2000/svg"><g id="svgGroup" stroke-linecap="round" fill-rule="evenodd" font-size="9pt" stroke="#000" stroke-width="0.25mm" fill="#000" style="stroke:#000;stroke-width:0.25mm;fill:#000"><path d="M 23.682 13.818 L 21.338 13.818 A 11.898 11.898 0 0 0 19.855 13.904 Q 18.25 14.106 17.364 14.788 A 2.808 2.808 0 0 0 16.943 15.186 A 3.887 3.887 0 0 0 16.278 16.352 Q 15.772 17.691 15.772 19.873 L 15.772 69.141 A 5.508 5.508 0 0 1 15.731 69.836 Q 15.635 70.587 15.312 71.002 A 1.343 1.343 0 0 1 15.161 71.167 Q 14.604 71.679 13.336 71.724 A 7.074 7.074 0 0 1 13.086 71.729 L 2.686 71.729 A 6.023 6.023 0 0 1 1.968 71.689 Q 1.059 71.579 0.61 71.167 A 1.556 1.556 0 0 1 0.239 70.619 Q 0.033 70.133 0.005 69.384 A 6.493 6.493 0 0 1 0 69.141 L 0 14.795 A 43.193 43.193 0 0 1 0.088 11.941 Q 0.276 9.117 0.862 7.188 A 12.429 12.429 0 0 1 0.903 7.056 A 6.944 6.944 0 0 1 2.207 4.634 A 6.531 6.531 0 0 1 4.419 2.954 A 10.31 10.31 0 0 1 6.394 2.271 Q 8.36 1.788 11.132 1.72 A 37.928 37.928 0 0 1 12.061 1.709 L 23.682 1.709 A 57.237 57.237 0 0 1 30.989 2.144 Q 39.364 3.225 44.175 6.996 A 17.195 17.195 0 0 1 44.434 7.202 A 17.397 17.397 0 0 1 50.185 16.205 Q 51.172 19.687 51.172 24.023 A 33.428 33.428 0 0 1 50.695 29.841 Q 49.872 34.492 47.632 37.891 A 21.319 21.319 0 0 1 38.452 45.801 A 28.75 28.75 0 0 1 26.514 48.34 A 4.218 4.218 0 0 1 25.478 48.218 A 3.234 3.234 0 0 1 24.365 47.705 A 13.064 13.064 0 0 1 23.687 47.205 Q 23.344 46.936 22.964 46.61 A 30.589 30.589 0 0 1 22.168 45.898 A 36.577 36.577 0 0 1 21.175 44.944 Q 20.636 44.408 20.052 43.789 A 66.92 66.92 0 0 1 19.336 43.018 A 3.671 3.671 0 0 1 19.054 42.647 Q 18.78 42.229 18.753 41.873 A 1.016 1.016 0 0 1 18.75 41.797 A 1.217 1.217 0 0 1 18.832 41.373 Q 18.97 41.003 19.336 40.576 A 42.95 42.95 0 0 1 21.354 38.44 Q 22.345 37.465 23.271 36.709 A 17.891 17.891 0 0 1 24.854 35.547 Q 25.44 35.156 26.514 35.156 A 7.691 7.691 0 0 0 32.099 32.819 A 9.955 9.955 0 0 0 32.251 32.666 A 7.177 7.177 0 0 0 33.798 30.141 Q 34.574 28.064 34.574 25.037 A 24.385 24.385 0 0 0 34.57 24.609 A 19.643 19.643 0 0 0 34.343 21.674 Q 34.102 20.168 33.607 18.984 A 7.019 7.019 0 0 0 31.616 16.211 Q 29.054 14.101 24.841 13.852 A 19.626 19.626 0 0 0 23.682 13.818 Z M 81.104 9.521 L 81.104 51.318 A 65.662 65.662 0 0 1 80.834 57.446 Q 80.439 61.647 79.468 65.039 A 36.756 36.756 0 0 1 77.597 70.172 A 27.527 27.527 0 0 1 74.976 74.756 A 33.379 33.379 0 0 1 69.268 80.978 A 31.009 31.009 0 0 1 68.482 81.616 A 67.897 67.897 0 0 1 60.84 86.816 A 3.25 3.25 0 0 1 60.408 87.02 Q 59.094 87.518 58.26 86.269 A 3.432 3.432 0 0 1 58.203 86.182 L 52.734 77.441 Q 51.74 75.814 53.215 74.772 A 3.834 3.834 0 0 1 53.467 74.609 Q 56.641 72.754 59.326 69.995 A 17.624 17.624 0 0 0 61.957 66.467 Q 62.912 64.806 63.66 62.8 A 29.125 29.125 0 0 0 63.672 62.769 A 23.38 23.38 0 0 0 64.716 58.894 Q 65.082 56.922 65.23 54.621 A 51.284 51.284 0 0 0 65.332 51.318 L 65.332 9.521 A 6.598 6.598 0 0 1 65.375 8.741 Q 65.475 7.903 65.809 7.391 A 1.98 1.98 0 0 1 65.82 7.373 Q 67.621 4.733 70.601 1.863 A 56.773 56.773 0 0 1 71.973 0.586 A 4.157 4.157 0 0 1 72.359 0.309 Q 72.852 0 73.242 0 A 1.346 1.346 0 0 1 73.783 0.12 Q 73.981 0.207 74.183 0.355 A 3.176 3.176 0 0 1 74.463 0.586 Q 76.611 2.441 78.076 4.126 A 40.617 40.617 0 0 1 79.601 5.982 A 31.773 31.773 0 0 1 80.615 7.373 Q 80.987 7.968 81.076 8.904 A 6.562 6.562 0 0 1 81.104 9.521 Z" vector-effect="non-scaling-stroke"/></g></svg>